<svg xmlns="http://www.w3.org/2000/svg" width="429.00000000000006" height="48.84578140905141" viewBox="0 0 369.66666666666663 42.09011000981974" class="looka-1j8o68f"><defs id="SvgjsDefs7836"><linearGradient id="SvgjsLinearGradient7841"><stop id="SvgjsStop7842" stop-color="#7f00ff" offset="0"></stop><stop id="SvgjsStop7843" stop-color="#e100ff" offset="1"></stop></linearGradient></defs><g id="SvgjsG7837" featurekey="FRM3ZD-0" transform="matrix(4.234417278510758,0,0,4.234417278510758,-2.117208639255379,-42.59823556039542)" fill="url(#SvgjsLinearGradient7841)"><path d="M0.5 20 l2.66 -9.94 l5.64 0 l2.66 9.94 l-10.96 0 l0 0 z M20.18 10.06 l-3.08 9.94 l-3.56 0 l-3.08 -9.94 l9.72 0 z"></path></g><g id="SvgjsG7838" featurekey="vMvB0T-0" transform="matrix(3.2727869495522954,0,0,3.2727869495522954,102.73817651343643,-24.069545973596497)" fill="#111111"><path d="M8.72 17.52 l-4.5 0 l-0.88 2.48 l-3.26 0 l4.9 -12.24 l3 0 l4.9 12.24 l-3.28 0 z M5.2 14.74 l2.54 0 l-1.26 -3.56 z M14.080000000000002 7.76 l3 0 l0 12.24 l-3 0 l0 -12.24 z M32.2 7.76 l3.28 0 l-4.9 12.24 l-3 0 l-4.9 -12.24 l3.26 0 l3.14 8.82 z M36.760000000000005 7.76 l9.1 0 l0 2.78 l-6.1 0 l0 1.96 l4.9 0 l0 2.78 l-4.9 0 l0 1.94 l6.1 0 l0 2.78 l-9.1 0 l0 -12.24 z M50.56 10.58 l0 2.92 l2.8 0 c0.92 0 1.46 -0.54 1.46 -1.46 s-0.54 -1.46 -1.46 -1.46 l-2.8 0 z M55.1 15.48 c0.56 0.76 1.12 1.52 1.7 2.26 c0.56 0.74 1.12 1.5 1.68 2.26 l-3.66 0 c-0.72 -0.96 -1.42 -1.92 -2.12 -2.88 c-0.7 -0.94 -1.42 -1.9 -2.14 -2.86 l0 5.74 l-3 0 l0 -12.24 l5.8 0 c2.28 0 4.22 1.74 4.22 4.04 c0 1.62 -1 3.04 -2.48 3.68 z M70.56 12.5 l0 6.8 c-1.42 0.54 -3.2 0.84 -4.72 0.84 c-3.9 0 -6.52 -2.34 -6.52 -6.2 c0 -4.22 3.14 -6.28 6.98 -6.28 c0.26 0 0.54 0 0.86 0.02 c0.3 0.02 0.62 0.06 0.96 0.08 c0.62 0.08 1.24 0.16 1.84 0.34 l0 3.06 c-0.22 -0.1 -0.46 -0.18 -0.74 -0.26 c-0.3 -0.06 -0.6 -0.12 -0.92 -0.18 c-0.64 -0.12 -1.32 -0.16 -1.98 -0.16 c-2.54 0 -4 0.78 -4 3.38 c0 2.54 1.34 3.3 3.62 3.3 c0.24 0 0.5 -0.02 0.78 -0.04 c0.26 -0.02 0.54 -0.04 0.84 -0.06 l0 -1.86 l-2.6 0 l0 -2.78 l5.6 0 z M72.46000000000001 7.76 l9.1 0 l0 2.78 l-6.1 0 l0 1.96 l4.9 0 l0 2.78 l-4.9 0 l0 1.94 l6.1 0 l0 2.78 l-9.1 0 l0 -12.24 z"></path></g></svg>